# xmcd CD database file
#
# Track frame offsets:
#	150
#	16348
#	35842
#	49923
#	71689
#	83586
#	107117
#	119929
#	129276
#	144040
#	170841
#	183920
#	200394
#	217809
#
# Disc length: 3115 seconds
#
# Revision: 0
# Processed by: cddbd v1.5.2PL0 Copyright (c) Steve Scherf et al.
# Submitted via: CDex 1.51
#
DISCID=c70c290e
DTITLE=Red Rock Hot Club - Gypsy Daydream
DYEAR=2008
DGENRE=Jazz
TTITLE0=After You've Gone
TTITLE1=Nuages
TTITLE2=J' Attendrai
TTITLE3=Bouncin' Around
TTITLE4=Blues For Ike
TTITLE5=Gypsy Daydream
TTITLE6=It Had To Be You
TTITLE7=Swing 48'
TTITLE8=Royal And Conti
TTITLE9=Tears
TTITLE10=Place De Brouckere
TTITLE11=Topsy
TTITLE12=When You're Smiling
TTITLE13=St. James Infirmary
EXTD=YEAR: 2008
EXTT0=
EXTT1=
EXTT2=
EXTT3=
EXTT4=
EXTT5=
EXTT6=
EXTT7=
EXTT8=
EXTT9=
EXTT10=
EXTT11=
EXTT12=
EXTT13=
PLAYORDER=
